<mxfile host="app.diagrams.net" modified="2022-03-31T09:24:10.739Z" agent="5.0 (Windows)" etag="yPeKxchA7HrH1uGqkQ-H" version="17.3.0" type="github">
  <diagram id="Q8xET7ON9W0R1aJAuh-l" name="Page-1">
    <mxGraphModel dx="2036" dy="666" grid="1" gridSize="10" guides="1" tooltips="1" connect="1" arrows="1" fold="1" page="1" pageScale="1" pageWidth="827" pageHeight="1169" math="0" shadow="0">
      <root>
        <mxCell id="0" />
        <mxCell id="1" parent="0" />
        <mxCell id="0zxXMMkWhYn1V5u2QKEj-7" value="" style="rounded=1;absoluteArcSize=1;html=1;arcSize=10;" vertex="1" parent="1">
          <mxGeometry x="200" y="120" width="560" height="520" as="geometry" />
        </mxCell>
        <mxCell id="0zxXMMkWhYn1V5u2QKEj-8" value="main" style="html=1;shape=mxgraph.er.anchor;whiteSpace=wrap;" vertex="1" parent="0zxXMMkWhYn1V5u2QKEj-7">
          <mxGeometry width="280" height="520" as="geometry" />
        </mxCell>
        <mxCell id="0zxXMMkWhYn1V5u2QKEj-9" value="" style="rounded=1;absoluteArcSize=1;html=1;arcSize=10;whiteSpace=wrap;points=[];strokeColor=inherit;fillColor=inherit;" vertex="1" parent="0zxXMMkWhYn1V5u2QKEj-7">
          <mxGeometry x="297" y="60" width="252" height="434" as="geometry" />
        </mxCell>
        <mxCell id="0zxXMMkWhYn1V5u2QKEj-10" value="" style="rounded=1;absoluteArcSize=1;html=1;arcSize=10;whiteSpace=wrap;points=[];strokeColor=inherit;fillColor=inherit;" vertex="1" parent="0zxXMMkWhYn1V5u2QKEj-7">
          <mxGeometry x="11" y="60" width="252" height="434" as="geometry" />
        </mxCell>
        <mxCell id="0zxXMMkWhYn1V5u2QKEj-11" value="&lt;h2 style=&quot;font-size: 29px&quot;&gt;&lt;font style=&quot;font-size: 29px&quot;&gt;&lt;b&gt;ZYNQ&lt;/b&gt;&lt;/font&gt;&lt;/h2&gt;" style="text;html=1;strokeColor=none;fillColor=none;align=center;verticalAlign=middle;whiteSpace=wrap;rounded=0;" vertex="1" parent="0zxXMMkWhYn1V5u2QKEj-7">
          <mxGeometry x="11" y="17" width="89" height="30" as="geometry" />
        </mxCell>
        <mxCell id="0zxXMMkWhYn1V5u2QKEj-15" value="&lt;b&gt;&lt;font style=&quot;font-size: 16px&quot;&gt;&lt;span class=&quot;markedContent&quot;&gt;&lt;span style=&quot;left: 1054.58px ; top: 286.237px ; font-family: sans-serif ; transform: scalex(0.929872)&quot; dir=&quot;ltr&quot;&gt;ARM Cortex-A9 MPCore&lt;/span&gt;&lt;/span&gt;&lt;/font&gt;&lt;/b&gt;" style="text;html=1;strokeColor=none;fillColor=none;align=center;verticalAlign=middle;whiteSpace=wrap;rounded=0;fontSize=29;strokeWidth=3;" vertex="1" parent="0zxXMMkWhYn1V5u2QKEj-7">
          <mxGeometry x="29.75" y="60" width="214.5" height="30" as="geometry" />
        </mxCell>
        <mxCell id="0zxXMMkWhYn1V5u2QKEj-16" value="&lt;b&gt;&lt;font style=&quot;font-size: 16px&quot;&gt;EVR&lt;/font&gt;&lt;/b&gt;" style="text;html=1;strokeColor=none;fillColor=none;align=center;verticalAlign=middle;whiteSpace=wrap;rounded=0;fontSize=29;" vertex="1" parent="0zxXMMkWhYn1V5u2QKEj-7">
          <mxGeometry x="393" y="60" width="60" height="30" as="geometry" />
        </mxCell>
        <mxCell id="0zxXMMkWhYn1V5u2QKEj-17" value="" style="rounded=1;absoluteArcSize=1;html=1;arcSize=10;whiteSpace=wrap;points=[];strokeColor=inherit;fillColor=inherit;" vertex="1" parent="0zxXMMkWhYn1V5u2QKEj-7">
          <mxGeometry x="26" y="100" width="222" height="380" as="geometry" />
        </mxCell>
        <mxCell id="0zxXMMkWhYn1V5u2QKEj-18" value="&lt;b&gt;&lt;font style=&quot;font-size: 14px&quot;&gt;Linux&lt;/font&gt;&lt;/b&gt;" style="text;html=1;strokeColor=none;fillColor=none;align=center;verticalAlign=middle;whiteSpace=wrap;rounded=0;fontSize=29;strokeWidth=3;" vertex="1" parent="0zxXMMkWhYn1V5u2QKEj-7">
          <mxGeometry x="116.36999999999999" y="100" width="40.25" height="10" as="geometry" />
        </mxCell>
        <mxCell id="0zxXMMkWhYn1V5u2QKEj-19" value="" style="rounded=1;absoluteArcSize=1;html=1;arcSize=10;whiteSpace=wrap;points=[];strokeColor=inherit;fillColor=inherit;" vertex="1" parent="0zxXMMkWhYn1V5u2QKEj-7">
          <mxGeometry x="54.99" y="310" width="163" height="144" as="geometry" />
        </mxCell>
        <mxCell id="0zxXMMkWhYn1V5u2QKEj-20" value="" style="rounded=1;absoluteArcSize=1;html=1;arcSize=10;whiteSpace=wrap;points=[];strokeColor=inherit;fillColor=inherit;" vertex="1" parent="0zxXMMkWhYn1V5u2QKEj-7">
          <mxGeometry x="55.25" y="140" width="163.5" height="144" as="geometry" />
        </mxCell>
        <mxCell id="0zxXMMkWhYn1V5u2QKEj-21" value="UIO" style="text;html=1;strokeColor=none;fillColor=none;align=center;verticalAlign=middle;whiteSpace=wrap;rounded=0;fontSize=14;" vertex="1" parent="0zxXMMkWhYn1V5u2QKEj-7">
          <mxGeometry x="106.5" y="140" width="60" height="30" as="geometry" />
        </mxCell>
        <mxCell id="0zxXMMkWhYn1V5u2QKEj-22" value="EPICS" style="text;html=1;strokeColor=none;fillColor=none;align=center;verticalAlign=middle;whiteSpace=wrap;rounded=0;fontSize=14;" vertex="1" parent="0zxXMMkWhYn1V5u2QKEj-7">
          <mxGeometry x="107" y="310" width="60" height="30" as="geometry" />
        </mxCell>
        <mxCell id="0zxXMMkWhYn1V5u2QKEj-23" value="" style="rounded=1;absoluteArcSize=1;html=1;arcSize=10;whiteSpace=wrap;points=[];strokeColor=inherit;fillColor=inherit;" vertex="1" parent="0zxXMMkWhYn1V5u2QKEj-7">
          <mxGeometry x="65.25" y="340" width="74.75" height="104" as="geometry" />
        </mxCell>
        <mxCell id="0zxXMMkWhYn1V5u2QKEj-25" value="&lt;font style=&quot;font-size: 14px&quot;&gt;register mapping&lt;/font&gt;" style="rounded=1;absoluteArcSize=1;html=1;arcSize=10;whiteSpace=wrap;points=[];strokeColor=inherit;fillColor=inherit;" vertex="1" parent="0zxXMMkWhYn1V5u2QKEj-7">
          <mxGeometry x="66.13" y="170" width="141.75" height="40" as="geometry" />
        </mxCell>
        <mxCell id="0zxXMMkWhYn1V5u2QKEj-26" value="&lt;pre class=&quot;tw-data-text tw-text-large tw-ta&quot; id=&quot;tw-target-text&quot; style=&quot;text-align: left&quot; dir=&quot;ltr&quot;&gt;&lt;span class=&quot;Y2IQFc&quot; lang=&quot;en&quot;&gt;interrupt handling&lt;/span&gt;&lt;/pre&gt;" style="rounded=1;absoluteArcSize=1;html=1;arcSize=10;whiteSpace=wrap;points=[];strokeColor=inherit;fillColor=inherit;" vertex="1" parent="0zxXMMkWhYn1V5u2QKEj-7">
          <mxGeometry x="66.11999999999999" y="230" width="141.75" height="40" as="geometry" />
        </mxCell>
        <mxCell id="0zxXMMkWhYn1V5u2QKEj-14" value="" style="shape=doubleArrow;whiteSpace=wrap;html=1;fontSize=29;" vertex="1" parent="1">
          <mxGeometry x="-190" y="30" width="250" height="130" as="geometry" />
        </mxCell>
      </root>
    </mxGraphModel>
  </diagram>
</mxfile>
